<svg xmlns="http://www.w3.org/2000/svg" xmlns:xlink="http://www.w3.org/1999/xlink" width="149.002" height="28.526" viewBox="0 0 149.002 28.526">
  <defs>
    <clipPath id="clip-path">
      <rect width="149.002" height="28.526" fill="none"/>
    </clipPath>
    <linearGradient id="linear-gradient" x1="5.708" y1="-8.046" x2="6.707" y2="-8.046" gradientUnits="objectBoundingBox">
      <stop offset="0" stop-color="#24d1bc"/>
      <stop offset="1" stop-color="#12b0bb"/>
    </linearGradient>
    <linearGradient id="linear-gradient-2" x1="8.726" y1="-16.411" x2="9.724" y2="-16.411" xlink:href="#linear-gradient"/>
    <linearGradient id="linear-gradient-3" x1="8.752" y1="-18.626" x2="9.753" y2="-18.626" xlink:href="#linear-gradient"/>
  </defs>
  <g id="Skimpel_Logo" data-name="Skimpel Logo" clip-path="url(#clip-path)">
    <g id="Слой_1">
      <path id="Контур_1" data-name="Контур 1" d="M86.1,17.855a7.778,7.778,0,0,0-2.368-1.184,9.279,9.279,0,0,0-2.762-.338,10.863,10.863,0,0,0-1.353.056,4.7,4.7,0,0,0-.846.226.6.6,0,0,0-.395.338,1.045,1.045,0,0,0-.113.395.587.587,0,0,0,.395.564,5.9,5.9,0,0,0,.958.226l3.834.451a7.384,7.384,0,0,1,3.439,1.184,3.245,3.245,0,0,1,1.24,2.819,3.627,3.627,0,0,1-.564,1.973A4.222,4.222,0,0,1,86.1,25.917a6.052,6.052,0,0,1-2.2.789,14.8,14.8,0,0,1-2.762.282,13.372,13.372,0,0,1-3.664-.507,10.791,10.791,0,0,1-3.27-1.748l1.635-2.706a10.328,10.328,0,0,0,2.706,1.409,7.158,7.158,0,0,0,2.875.451,10.8,10.8,0,0,0,2.311-.282c.62-.226.958-.507.958-.958a.787.787,0,0,0-.169-.507,1.294,1.294,0,0,0-.789-.226l-4.51-.507a6.168,6.168,0,0,1-3.27-1.128,3.35,3.35,0,0,1-1.184-2.819,3.548,3.548,0,0,1,.507-1.86,3.323,3.323,0,0,1,1.353-1.3,7.6,7.6,0,0,1,1.973-.789,8.442,8.442,0,0,1,2.368-.226,15.808,15.808,0,0,1,3.608.451,9.054,9.054,0,0,1,3.27,1.691Z" transform="translate(-32.369 -5.791)" fill="#292a34"/>
      <path id="Контур_2" data-name="Контур 2" d="M108.439,13.6v4.623h3.1L114.7,13.6h4.059l-4.228,6.089,4.51,7.047h-4.172l-3.213-5.3H108.5v5.3H105V13.6Z" transform="translate(-45.805 -5.933)" fill="#292a34"/>
      <path id="Контур_3" data-name="Контур 3" d="M138.8,13.6V26.736h-3.5V13.6Z" transform="translate(-59.023 -5.933)" fill="#292a34"/>
      <path id="Контур_4" data-name="Контур 4" d="M152.354,13.6l4.059,8.738h.113l4.4-8.738h4.228V26.736h-3.5V18.5l-3.834,8.231H155L151.283,18.5v8.231H147.9V13.6Z" transform="translate(-64.52 -5.933)" fill="#292a34"/>
      <path id="Контур_5" data-name="Контур 5" d="M192.78,13.6a6.045,6.045,0,0,1,2.2.395,5.623,5.623,0,0,1,1.748,1.071,4.976,4.976,0,0,1,1.522,3.777,5.557,5.557,0,0,1-.395,2.142,4.721,4.721,0,0,1-1.128,1.635,4.915,4.915,0,0,1-1.748,1.015,7.442,7.442,0,0,1-2.2.338H188.5v2.819H185V13.6ZM188.5,20.76h4.115a2.835,2.835,0,0,0,1.522-.451,1.731,1.731,0,0,0,.564-1.466,2.047,2.047,0,0,0-.62-1.466,2.128,2.128,0,0,0-1.522-.564h-4.115V20.76Z" transform="translate(-80.704 -5.933)" fill="#292a34"/>
      <path id="Контур_6" data-name="Контур 6" d="M226.565,13.6v3.157H218v1.8h7.724v3.157H218v1.86H226.9v3.213H214.5V13.6Z" transform="translate(-93.573 -5.933)" fill="#292a34"/>
      <path id="Контур_7" data-name="Контур 7" d="M246.2,13.6v9.979h8.682v3.157H242.7V13.6Z" transform="translate(-105.875 -5.933)" fill="#292a34"/>
      <path id="Контур_8" data-name="Контур 8" d="M22.212,15.447,8.738,8.4a6.5,6.5,0,0,1-3.5-5.75V0H0V2.65a11.734,11.734,0,0,0,6.314,10.43l13.418,7.047a6.5,6.5,0,0,1,3.5,5.75v2.65h5.3v-2.65A11.734,11.734,0,0,0,22.212,15.447Z" transform="translate(0)" fill="url(#linear-gradient)"/>
      <path id="Контур_9" data-name="Контур 9" d="M17.5,0a5.293,5.293,0,0,0,5.3,5.3h8.062v4.736l1.409.733a18.749,18.749,0,0,1,3.89,2.762V0Z" transform="translate(-7.634)" fill="url(#linear-gradient-2)"/>
      <path id="Контур_10" data-name="Контур 10" d="M13.361,34.831H5.3V30.1L3.89,29.362A18.748,18.748,0,0,1,0,26.6V40.13H18.6A5.281,5.281,0,0,0,13.361,34.831Z" transform="translate(0 -11.604)" fill="url(#linear-gradient-3)"/>
    </g>
  </g>
</svg>
