<svg xmlns="http://www.w3.org/2000/svg" width="45.717" height="10.523" viewBox="0 0 45.717 10.523">
  <g id="AMEX" opacity="0.582">
    <path id="polyline3" d="M37.943,0,34.268,2.837,31.012,0H17.06L15.187,3.788,13.274,0H2.827L0,9.909,4.991,7.468,8.482,9.909H31.45l2.637-2.837,3.855,2.837" transform="translate(2.827 0)" fill="#0a7ec2"/>
    <path id="path7" d="M6.337,10.523H0L5,0H16.946l1.206,2.324L19.279,0h16.1L36.76,1.444,38.238,0h7.479l-5.31,5.249,5.08,5.272H38.25l-1.619-1.55-1.606,1.55H9.191l-.777-1.66H7.044l-.707,1.66Zm30.3-3.969h0L39.123,9.02h2.322l-3.55-3.8L41.55,1.5H39.123L36.712,3.938,34.465,1.5H25.448V9.02h8.717l2.471-2.465ZM21.793,3.009h0V9.02h1.932V1.5H20.58L18.214,6.539,15.668,1.5H12.522V8.794L9.272,1.5H6.321L2.846,9.02H4.973l.7-1.714H9.721L10.53,9.02h3.909V2.9L17.21,9.02h1.827l2.755-6.01ZM31.964,8.568V7.516H27.38V5.863h4.583v-1.5H27.38V3.006h4.583V1.729l3.4,3.412-3.4,3.426ZM9.062,5.787H6.321L7.744,2.736,9.062,5.786Z" fill="#fff"/>
  </g>
</svg>
