<svg xmlns="http://www.w3.org/2000/svg" width="241.413" height="232.707" viewBox="0 0 241.413 232.707">
  <g id="Сгруппировать_9" data-name="Сгруппировать 9" transform="translate(-857.94 -143.707)">
    <g id="Сгруппировать_7" data-name="Сгруппировать 7" transform="translate(857.94 156.211)">
      <g id="Сгруппировать_6" data-name="Сгруппировать 6">
        <g id="Сгруппировать_5" data-name="Сгруппировать 5">
          <path id="Контур_16" data-name="Контур 16" d="M968.042,374.947a110.1,110.1,0,1,1,110.1-110.1A110.226,110.226,0,0,1,968.042,374.947Zm0-208.874a98.773,98.773,0,1,0,98.774,98.773A98.884,98.884,0,0,0,968.042,166.073Z" transform="translate(-857.94 -154.744)" fill="#2ed1bf"/>
        </g>
      </g>
    </g>
    <path id="Контур_17" data-name="Контур 17" d="M1097,184.739a23.845,23.845,0,0,0-9.414-16.086l-27.418-20.309a23.78,23.78,0,0,0-32.877,4.542l-65.824,85.035-22.893-22.893a23.557,23.557,0,0,0-16.775-6.953h-.424l-.088.006a23.536,23.536,0,0,0-16.44,7.121l-23.8,24.312a23.715,23.715,0,0,0-.505,32.659l63.764,69.28a23.778,23.778,0,0,0,17.455,7.662c.242,0,.491,0,.743-.011a23.714,23.714,0,0,0,17.68-8.764l111.7-137.68A23.837,23.837,0,0,0,1097,184.739Zm-39.135,4.95L961.244,308.775l-48.26-52.434,8.893-9.085,23.853,23.852a23.844,23.844,0,0,0,16.744,6.952c.525,0,1.05-.018,1.529-.05a23.734,23.734,0,0,0,17.261-9.154l66.864-86.379Z" transform="translate(2.17)" fill="#fff"/>
    <g id="Сгруппировать_8" data-name="Сгруппировать 8" transform="translate(893.741 160.98)">
      <path id="Контур_18" data-name="Контур 18" d="M891.239,258.434l63.767,69.285a6.424,6.424,0,0,0,9.716-.3l111.7-137.678a6.425,6.425,0,0,0-1.165-9.21l-27.419-20.309a6.423,6.423,0,0,0-8.9,1.229l-73.38,94.8a6.425,6.425,0,0,1-9.624.61l-31.623-31.623a6.425,6.425,0,0,0-9.134.049l-23.8,24.311A6.426,6.426,0,0,0,891.239,258.434Z" transform="translate(-889.542 -158.954)" fill="#2ed1bf"/>
    </g>
  </g>
</svg>
