<svg xmlns="http://www.w3.org/2000/svg" width="25.781" height="8.374" viewBox="0 0 25.781 8.374">
  <g id="Visa_Inc._logo" opacity="0.582">
    <path id="polygon9" d="M2.088,8.106H0L1.306,0H3.395Z" transform="translate(9.084 0.147)" fill="#00579f"/>
    <path id="path11" d="M6.265.345A5.131,5.131,0,0,0,4.392,0C2.329,0,.877,1.1.868,2.682c-.017,1.164,1.04,1.811,1.83,2.2.808.4,1.083.656,1.083,1.009-.008.543-.653.793-1.254.793a4.144,4.144,0,0,1-1.96-.431l-.275-.13L0,7.943a6.336,6.336,0,0,0,2.329.431c2.191,0,3.618-1.087,3.635-2.768.008-.923-.55-1.63-1.753-2.208-.73-.371-1.178-.621-1.178-1,.009-.345.378-.7,1.2-.7a3.538,3.538,0,0,1,1.556.31l.189.086L6.265.345Z" transform="translate(12.478 0)" fill="#00579f"/>
    <path id="path13" d="M2.191,8.106H0L3.1.673A1.024,1.024,0,0,1,4.194,0H5.809L7.494,8.105H5.56c0-.008-.189-.928-.249-1.216H2.63L2.192,8.106ZM4.34,2.193c-.062.177-.15.423-.209.586s-.066.185-.067.188L4.054,3c-.087.236-.664,1.808-.823,2.239H4.967c-.081-.38-.44-2.142-.48-2.341v0Z" transform="translate(18.287 0.147)" fill="#00579f"/>
    <path id="path15" d="M5.156,0,3.111,5.528,2.887,4.407A6.2,6.2,0,0,0,0,1.009L1.873,8.1H4.082L7.365,0H5.156Z" transform="translate(2.183 0.147)" fill="#00579f"/>
    <path id="path17" d="M3.395,0H.034L0,.164A7,7,0,0,1,5.07,4.407L4.34.681A.864.864,0,0,0,3.395,0Z" transform="translate(0 0.147)" fill="#faa61a"/>
  </g>
</svg>
