<svg xmlns="http://www.w3.org/2000/svg" width="598.839" height="440.241" viewBox="0 0 598.839 440.241">
  <path id="Контур_32" data-name="Контур 32" d="M1889.261,1404.7c32.27,25.228,74.541,32.971,115.141,38.4,71.642,9.578,144.929,14.359,215.856.431s139.883-48.241,184.242-105.309,60.069-138.649,28.974-203.9c-28.109-58.982-89.346-96.854-152.9-112.023s-129.982-10.7-195.054-4.8c-37.677,3.418-106.705,8.555-100.849,56.171,5.555,45.156,66.008,63.9,39.059,120.9-28.263,59.773-130.212,44.725-163.911,101.61C1838.939,1331.416,1856.991,1379.472,1889.261,1404.7Z" transform="translate(-1850.869 -1011.991)" fill="#24d1bc"/>
</svg>
